<svg width="1920" height="1080" viewBox="0 0 1920 1080" xmlns="http://www.w3.org/2000/svg"><rect width="1920" height="1080" fill="#0b26ef"/><path d="M 0,1080 C 0,1080 0,180 0,180 C 129.67692307692306,169.44615384615383 259.3538461538461,158.8923076923077 368,173 C 476.6461538461539,187.1076923076923 564.2615384615385,225.87692307692308 649,218 C 733.7384615384615,210.12307692307692 815.6000000000001,155.60000000000002 935,137 C 1054.3999999999999,118.39999999999999 1211.3384615384614,135.72307692307692 1326,143 C 1440.6615384615386,150.27692307692308 1513.0461538461539,147.5076923076923 1605,152 C 1696.9538461538461,156.4923076923077 1808.476923076923,168.24615384615385 1920,180 C 1920,180 1920,1080 1920,1080 Z" fill="#4b0070" opacity="0.09999999999999999"/><path d="M 0,1080 C 0,1080 0,360 0,360 C 93.06666666666666,366.6692307692308 186.13333333333333,373.33846153846156 288,351 C 389.8666666666667,328.66153846153844 500.5333333333332,277.3153846153847 620,293 C 739.4666666666668,308.6846153846153 867.7333333333333,391.3999999999999 964,409 C 1060.2666666666667,426.6000000000001 1124.5333333333333,379.0846153846154 1223,375 C 1321.4666666666667,370.9153846153846 1454.1333333333332,410.26153846153846 1576,415 C 1697.8666666666668,419.73846153846154 1808.9333333333334,389.86923076923074 1920,360 C 1920,360 1920,1080 1920,1080 Z" fill="#4b0070" opacity="0.19999999999999998"/><path d="M 0,1080 C 0,1080 0,540 0,540 C 90.51538461538462,536.9871794871794 181.03076923076924,533.974358974359 295,546 C 408.96923076923076,558.025641025641 546.3923076923077,585.0897435897435 676,592 C 805.6076923076923,598.9102564102565 927.4000000000001,585.6666666666666 1012,557 C 1096.6,528.3333333333334 1144.0076923076922,484.2435897435898 1231,494 C 1317.9923076923078,503.7564102564102 1444.569230769231,567.3589743589744 1566,584 C 1687.430769230769,600.6410256410256 1803.7153846153847,570.3205128205128 1920,540 C 1920,540 1920,1080 1920,1080 Z" fill="#4b0070" opacity="0.3"/><path d="M 0,1080 C 0,1080 0,720 0,720 C 88.96923076923076,716.5999999999999 177.93846153846152,713.1999999999999 293,702 C 408.0615384615385,690.8000000000001 549.2153846153846,671.8000000000001 668,674 C 786.7846153846154,676.1999999999999 883.2,699.6 967,709 C 1050.8,718.4 1121.9846153846152,713.8 1232,726 C 1342.0153846153848,738.2 1490.8615384615384,767.2 1612,769 C 1733.1384615384616,770.8 1826.5692307692307,745.4 1920,720 C 1920,720 1920,1080 1920,1080 Z" fill="#4b0070" opacity="0.39999999999999997"/><path d="M 0,1080 C 0,1080 0,900 0,900 C 100.96410256410257,920.774358974359 201.92820512820515,941.5487179487179 296,957 C 390.07179487179485,972.4512820512821 477.25128205128215,982.5794871794873 595,954 C 712.7487179487179,925.4205128205127 861.0666666666666,858.1333333333332 972,841 C 1082.9333333333334,823.8666666666668 1156.4820512820513,856.8871794871795 1255,867 C 1353.5179487179487,877.1128205128205 1477.0051282051284,864.3179487179488 1592,866 C 1706.9948717948716,867.6820512820512 1813.497435897436,883.8410256410257 1920,900 C 1920,900 1920,1080 1920,1080 Z" fill="#4b0070" opacity="0.49999999999999994"/></svg>