<svg width="1920" height="1080" viewBox="0 0 1920 1080" xmlns="http://www.w3.org/2000/svg"><rect width="1920" height="1080" fill="#10f4f0"/><path d="M 0,1080 C 0,1080 0,180 0,180 C 74.38205128205126,154.8128205128205 148.76410256410253,129.62564102564102 267,131 C 385.23589743589747,132.37435897435898 547.3256410256411,160.31025641025641 657,162 C 766.6743589743589,163.68974358974359 823.9333333333334,139.13333333333333 925,127 C 1026.0666666666666,114.86666666666666 1170.9410256410258,115.15641025641025 1278,120 C 1385.0589743589742,124.84358974358975 1454.302564102564,134.24102564102566 1555,145 C 1655.697435897436,155.75897435897434 1787.8487179487179,167.87948717948717 1920,180 C 1920,180 1920,1080 1920,1080 Z" fill="#08494a" opacity="0.09999999999999999"/><path d="M 0,1080 C 0,1080 0,360 0,360 C 121.38717948717948,383.92564102564097 242.77435897435896,407.851282051282 340,416 C 437.22564102564104,424.148717948718 510.2897435897437,416.52051282051286 609,386 C 707.7102564102563,355.47948717948714 832.0666666666668,302.06666666666666 966,310 C 1099.9333333333332,317.93333333333334 1243.4435897435899,387.21282051282054 1336,390 C 1428.5564102564101,392.78717948717946 1470.1589743589743,329.0820512820513 1559,313 C 1647.8410256410257,296.9179487179487 1783.9205128205128,328.4589743589744 1920,360 C 1920,360 1920,1080 1920,1080 Z" fill="#08494a" opacity="0.19999999999999998"/><path d="M 0,1080 C 0,1080 0,540 0,540 C 132.70256410256408,508.7051282051282 265.40512820512816,477.4102564102564 357,476 C 448.59487179487184,474.5897435897436 499.08205128205134,503.06410256410254 610,510 C 720.9179487179487,516.9358974358975 892.2666666666667,502.33333333333337 1011,518 C 1129.7333333333333,533.6666666666666 1195.8512820512822,579.6025641025641 1274,589 C 1352.1487179487178,598.3974358974359 1442.328205128205,571.2564102564103 1552,557 C 1661.671794871795,542.7435897435897 1790.8358974358976,541.3717948717949 1920,540 C 1920,540 1920,1080 1920,1080 Z" fill="#08494a" opacity="0.3"/><path d="M 0,1080 C 0,1080 0,720 0,720 C 75.25897435897437,710.6358974358974 150.51794871794874,701.2717948717948 262,712 C 373.48205128205126,722.7282051282052 521.1871794871795,753.5487179487179 641,755 C 760.8128205128205,756.4512820512821 852.7333333333331,728.5333333333334 944,731 C 1035.2666666666669,733.4666666666666 1125.8794871794871,766.3179487179488 1240,778 C 1354.1205128205129,789.6820512820512 1491.7487179487182,780.1948717948718 1609,767 C 1726.2512820512818,753.8051282051282 1823.125641025641,736.9025641025642 1920,720 C 1920,720 1920,1080 1920,1080 Z" fill="#08494a" opacity="0.39999999999999997"/><path d="M 0,1080 C 0,1080 0,900 0,900 C 116.79743589743592,908.0641025641025 233.59487179487184,916.1282051282051 342,915 C 450.40512820512816,913.8717948717949 550.4179487179487,903.5512820512822 649,913 C 747.5820512820513,922.4487179487178 844.7333333333333,951.6666666666665 952,931 C 1059.2666666666667,910.3333333333335 1176.6487179487178,839.7820512820513 1291,848 C 1405.3512820512822,856.2179487179487 1516.6717948717949,943.2051282051283 1621,965 C 1725.3282051282051,986.7948717948717 1822.6641025641024,943.3974358974358 1920,900 C 1920,900 1920,1080 1920,1080 Z" fill="#08494a" opacity="0.49999999999999994"/></svg>