<svg width="1920" height="1080" viewBox="0 0 1920 1080" xmlns="http://www.w3.org/2000/svg"><rect width="1920" height="1080" fill="#eeced7"/><path d="M 0,1080 C 0,1080 0,180 0,180 C 122.05897435897435,187.11538461538464 244.1179487179487,194.23076923076925 341,194 C 437.8820512820513,193.76923076923075 509.58717948717947,186.19230769230768 628,185 C 746.4128205128205,183.80769230769232 911.5333333333333,189 1008,195 C 1104.4666666666667,201 1132.2794871794872,207.8076923076923 1237,196 C 1341.7205128205128,184.1923076923077 1523.3487179487179,153.76923076923077 1650,148 C 1776.6512820512821,142.23076923076923 1848.325641025641,161.1153846153846 1920,180 C 1920,180 1920,1080 1920,1080 Z" fill="#ab81c1" opacity="0.09999999999999999"/><path d="M 0,1080 C 0,1080 0,360 0,360 C 135.72820512820513,326.5051282051282 271.45641025641027,293.0102564102564 361,299 C 450.54358974358973,304.9897435897436 493.90256410256427,350.4641025641026 586,385 C 678.0974358974357,419.5358974358974 818.9333333333332,443.1333333333333 948,417 C 1077.0666666666668,390.8666666666667 1194.3641025641025,315.00256410256407 1307,301 C 1419.6358974358975,286.99743589743593 1527.6102564102564,334.85641025641024 1629,355 C 1730.3897435897436,375.14358974358976 1825.1948717948717,367.57179487179485 1920,360 C 1920,360 1920,1080 1920,1080 Z" fill="#ab81c1" opacity="0.19999999999999998"/><path d="M 0,1080 C 0,1080 0,540 0,540 C 92.56923076923081,554.0102564102564 185.13846153846163,568.0205128205127 280,561 C 374.8615384615384,553.9794871794873 472.0153846153845,525.9282051282051 597,529 C 721.9846153846155,532.0717948717949 874.8,566.2666666666667 1000,552 C 1125.2,537.7333333333333 1222.7846153846153,475.0051282051282 1306,484 C 1389.2153846153847,492.9948717948718 1458.0615384615385,573.7128205128205 1558,595 C 1657.9384615384615,616.2871794871795 1788.9692307692308,578.1435897435897 1920,540 C 1920,540 1920,1080 1920,1080 Z" fill="#ab81c1" opacity="0.3"/><path d="M 0,1080 C 0,1080 0,720 0,720 C 93.08974358974359,686.9205128205128 186.17948717948718,653.8410256410256 290,670 C 393.8205128205128,686.1589743589744 508.37179487179503,751.5564102564102 636,773 C 763.628205128205,794.4435897435898 904.3333333333333,771.9333333333333 1005,755 C 1105.6666666666667,738.0666666666667 1166.2948717948718,726.7102564102564 1261,712 C 1355.7051282051282,697.2897435897436 1484.4871794871794,679.225641025641 1600,680 C 1715.5128205128206,680.774358974359 1817.7564102564102,700.3871794871795 1920,720 C 1920,720 1920,1080 1920,1080 Z" fill="#ab81c1" opacity="0.39999999999999997"/><path d="M 0,1080 C 0,1080 0,900 0,900 C 98.45641025641024,922.6102564102564 196.91282051282047,945.2205128205129 313,947 C 429.0871794871795,948.7794871794871 562.8051282051282,929.7282051282051 668,908 C 773.1948717948718,886.2717948717949 849.866666666667,861.8666666666666 945,851 C 1040.133333333333,840.1333333333334 1153.7282051282048,842.8051282051282 1277,859 C 1400.2717948717952,875.1948717948718 1533.220512820513,904.9128205128205 1642,914 C 1750.779487179487,923.0871794871795 1835.3897435897434,911.5435897435898 1920,900 C 1920,900 1920,1080 1920,1080 Z" fill="#ab81c1" opacity="0.49999999999999994"/></svg>