<svg width="1920" height="1080" viewBox="0 0 1920 1080" xmlns="http://www.w3.org/2000/svg"><rect width="1920" height="1080" fill="#ff0048"/><path d="M 0,1080 C 0,1080 0,180 0,180 C 124.76153846153844,189.42820512820515 249.52307692307687,198.85641025641027 354,183 C 458.47692307692313,167.14358974358973 542.6692307692309,126.0025641025641 655,134 C 767.3307692307691,141.9974358974359 907.8,199.13333333333333 1004,200 C 1100.2,200.86666666666667 1152.1307692307691,145.46410256410257 1235,140 C 1317.8692307692309,134.53589743589743 1431.676923076923,179.0102564102564 1551,194 C 1670.323076923077,208.9897435897436 1795.1615384615384,194.4948717948718 1920,180 C 1920,180 1920,1080 1920,1080 Z" fill="#380552" opacity="0.09999999999999999"/><path d="M 0,1080 C 0,1080 0,360 0,360 C 93.72820512820513,399.28205128205127 187.45641025641027,438.56410256410254 286,423 C 384.54358974358973,407.43589743589746 487.90256410256404,337.02564102564105 608,337 C 728.097435897436,336.97435897435895 864.9333333333334,407.3333333333333 980,415 C 1095.0666666666666,422.6666666666667 1188.3641025641025,367.64102564102564 1293,364 C 1397.6358974358975,360.35897435897436 1513.6102564102564,408.1025641025641 1620,416 C 1726.3897435897436,423.8974358974359 1823.1948717948717,391.94871794871796 1920,360 C 1920,360 1920,1080 1920,1080 Z" fill="#380552" opacity="0.19999999999999998"/><path d="M 0,1080 C 0,1080 0,540 0,540 C 125.76923076923075,520.9666666666667 251.5384615384615,501.93333333333334 342,492 C 432.4615384615385,482.06666666666666 487.61538461538464,481.23333333333335 600,508 C 712.3846153846154,534.7666666666667 882,589.1333333333333 1000,587 C 1118,584.8666666666667 1184.3846153846152,526.2333333333333 1288,507 C 1391.6153846153848,487.76666666666665 1532.4615384615386,507.9333333333333 1644,520 C 1755.5384615384614,532.0666666666667 1837.7692307692307,536.0333333333333 1920,540 C 1920,540 1920,1080 1920,1080 Z" fill="#380552" opacity="0.3"/><path d="M 0,1080 C 0,1080 0,720 0,720 C 85.56666666666666,748.1076923076923 171.13333333333333,776.2153846153846 274,759 C 376.8666666666667,741.7846153846154 497.0333333333334,679.2461538461539 615,682 C 732.9666666666666,684.7538461538461 848.7333333333333,752.8000000000001 960,781 C 1071.2666666666667,809.1999999999999 1178.0333333333333,797.5538461538463 1285,778 C 1391.9666666666667,758.4461538461537 1499.1333333333334,730.9846153846153 1605,720 C 1710.8666666666666,709.0153846153847 1815.4333333333334,714.5076923076924 1920,720 C 1920,720 1920,1080 1920,1080 Z" fill="#380552" opacity="0.39999999999999997"/><path d="M 0,1080 C 0,1080 0,900 0,900 C 118.96153846153842,930.5461538461539 237.92307692307685,961.0923076923076 356,944 C 474.07692307692315,926.9076923076924 591.2692307692308,862.1769230769231 697,854 C 802.7307692307692,845.8230769230769 897,894.2 993,927 C 1089,959.8 1186.7307692307693,977.0230769230769 1300,961 C 1413.2692307692307,944.9769230769231 1542.0769230769233,895.7076923076922 1648,880 C 1753.9230769230767,864.2923076923078 1836.9615384615383,882.1461538461539 1920,900 C 1920,900 1920,1080 1920,1080 Z" fill="#380552" opacity="0.49999999999999994"/></svg>