<svg width="1920" height="1080" viewBox="0 0 1920 1080" xmlns="http://www.w3.org/2000/svg"><rect width="1920" height="1080" fill="#eeced7"/><path d="M 0,1080 C 0,1080 0,180 0,180 C 100.41794871794872,175.97179487179488 200.83589743589744,171.94358974358974 315,183 C 429.16410256410256,194.05641025641026 557.074358974359,220.1974358974359 662,202 C 766.925641025641,183.8025641025641 848.8666666666666,121.26666666666668 964,113 C 1079.1333333333334,104.73333333333332 1227.4589743589745,150.73589743589744 1331,167 C 1434.5410256410255,183.26410256410256 1493.297435897436,169.7897435897436 1584,167 C 1674.702564102564,164.2102564102564 1797.351282051282,172.1051282051282 1920,180 C 1920,180 1920,1080 1920,1080 Z" fill="#504068" opacity="0.09999999999999999"/><path d="M 0,1080 C 0,1080 0,360 0,360 C 94.31025641025641,358.76666666666665 188.62051282051283,357.53333333333336 292,359 C 395.37948717948717,360.46666666666664 507.8282051282051,364.6333333333333 614,362 C 720.1717948717949,359.3666666666667 820.0666666666668,349.93333333333334 940,356 C 1059.9333333333332,362.06666666666666 1199.9051282051282,383.6333333333333 1320,383 C 1440.0948717948718,382.3666666666667 1540.3128205128205,359.5333333333333 1637,352 C 1733.6871794871795,344.4666666666667 1826.8435897435897,352.23333333333335 1920,360 C 1920,360 1920,1080 1920,1080 Z" fill="#504068" opacity="0.19999999999999998"/><path d="M 0,1080 C 0,1080 0,540 0,540 C 85.25897435897437,563.4538461538461 170.51794871794874,586.9076923076924 278,597 C 385.48205128205126,607.0923076923076 515.1871794871794,603.8230769230769 642,587 C 768.8128205128206,570.1769230769231 892.7333333333333,539.8000000000001 984,546 C 1075.2666666666667,552.1999999999999 1133.8794871794873,594.9769230769232 1222,582 C 1310.1205128205127,569.0230769230768 1427.748717948718,500.2923076923077 1549,484 C 1670.251282051282,467.7076923076923 1795.125641025641,503.8538461538461 1920,540 C 1920,540 1920,1080 1920,1080 Z" fill="#504068" opacity="0.3"/><path d="M 0,1080 C 0,1080 0,720 0,720 C 103.95897435897436,693.1179487179487 207.91794871794872,666.2358974358974 305,684 C 402.0820512820513,701.7641025641026 492.2871794871795,764.1743589743589 599,755 C 705.7128205128205,745.8256410256411 828.9333333333334,665.0666666666667 943,669 C 1057.0666666666666,672.9333333333333 1161.9794871794873,761.5589743589744 1278,780 C 1394.0205128205127,798.4410256410256 1521.1487179487178,746.697435897436 1630,725 C 1738.8512820512822,703.302564102564 1829.4256410256412,711.651282051282 1920,720 C 1920,720 1920,1080 1920,1080 Z" fill="#504068" opacity="0.39999999999999997"/><path d="M 0,1080 C 0,1080 0,900 0,900 C 103.75384615384615,883.4769230769231 207.5076923076923,866.9538461538461 317,885 C 426.4923076923077,903.0461538461539 541.723076923077,955.6615384615384 637,941 C 732.276923076923,926.3384615384616 807.5999999999999,844.4000000000001 902,833 C 996.4000000000001,821.5999999999999 1109.8769230769233,880.7384615384616 1240,891 C 1370.1230769230767,901.2615384615384 1516.8923076923077,862.6461538461538 1633,856 C 1749.1076923076923,849.3538461538462 1834.5538461538463,874.6769230769231 1920,900 C 1920,900 1920,1080 1920,1080 Z" fill="#504068" opacity="0.49999999999999994"/></svg>