<svg width="1920" height="1080" viewBox="0 0 1920 1080" xmlns="http://www.w3.org/2000/svg"><rect width="1920" height="1080" fill="#eeced7"/><path d="M 0,1080 C 0,1080 0,180 0,180 C 112.23589743589744,168.32564102564103 224.47179487179488,156.65128205128207 325,162 C 425.5282051282051,167.34871794871793 514.348717948718,189.72051282051282 627,199 C 739.651282051282,208.27948717948718 876.1333333333332,204.46666666666667 988,217 C 1099.8666666666668,229.53333333333333 1187.1179487179488,258.41282051282053 1277,237 C 1366.8820512820512,215.5871794871795 1459.3948717948717,143.8820512820513 1567,126 C 1674.6051282051283,108.11794871794872 1797.3025641025642,144.05897435897435 1920,180 C 1920,180 1920,1080 1920,1080 Z" fill="#93628a" opacity="0.09999999999999999"/><path d="M 0,1080 C 0,1080 0,360 0,360 C 137.3179487179487,360.7948717948718 274.6358974358974,361.5897435897436 376,375 C 477.3641025641026,388.4102564102564 542.7743589743591,414.4358974358974 651,425 C 759.2256410256409,435.5641025641026 910.2666666666664,430.6666666666667 1012,425 C 1113.7333333333336,419.3333333333333 1166.1589743589743,412.8974358974359 1244,387 C 1321.8410256410257,361.1025641025641 1425.097435897436,315.7435897435897 1542,308 C 1658.902564102564,300.2564102564103 1789.4512820512819,330.12820512820514 1920,360 C 1920,360 1920,1080 1920,1080 Z" fill="#93628a" opacity="0.19999999999999998"/><path d="M 0,1080 C 0,1080 0,540 0,540 C 86.71025641025639,542.7871794871795 173.42051282051278,545.574358974359 282,538 C 390.5794871794872,530.425641025641 521.0282051282052,512.4897435897435 644,501 C 766.9717948717948,489.51025641025643 882.4666666666667,484.4666666666667 973,496 C 1063.5333333333333,507.5333333333333 1129.1051282051283,535.6435897435897 1228,539 C 1326.8948717948717,542.3564102564103 1459.1128205128205,520.9589743589744 1580,517 C 1700.8871794871795,513.0410256410256 1810.4435897435897,526.5205128205127 1920,540 C 1920,540 1920,1080 1920,1080 Z" fill="#93628a" opacity="0.3"/><path d="M 0,1080 C 0,1080 0,720 0,720 C 137.0564102564103,747.1384615384616 274.1128205128206,774.276923076923 363,780 C 451.8871794871794,785.723076923077 492.60512820512804,770.0307692307694 587,763 C 681.394871794872,755.9692307692306 829.4666666666669,757.6 953,732 C 1076.533333333333,706.4 1175.528205128205,653.5692307692308 1289,656 C 1402.471794871795,658.4307692307692 1530.4205128205128,716.123076923077 1638,736 C 1745.5794871794872,755.876923076923 1832.7897435897435,737.9384615384615 1920,720 C 1920,720 1920,1080 1920,1080 Z" fill="#93628a" opacity="0.39999999999999997"/><path d="M 0,1080 C 0,1080 0,900 0,900 C 130.66666666666666,919.2717948717949 261.3333333333333,938.5435897435898 361,943 C 460.6666666666667,947.4564102564102 529.3333333333335,937.097435897436 637,915 C 744.6666666666665,892.902564102564 891.3333333333333,859.0666666666666 1006,867 C 1120.6666666666667,874.9333333333334 1203.3333333333335,924.6358974358975 1306,926 C 1408.6666666666665,927.3641025641025 1531.3333333333333,880.3897435897436 1637,868 C 1742.6666666666667,855.6102564102564 1831.3333333333335,877.8051282051282 1920,900 C 1920,900 1920,1080 1920,1080 Z" fill="#93628a" opacity="0.49999999999999994"/></svg>