<svg width="1920" height="1080" viewBox="0 0 1920 1080" xmlns="http://www.w3.org/2000/svg"><rect width="1920" height="1080" fill="#33e648"/><path d="M 0,1080 C 0,1080 0,180 0,180 C 113.925641025641,213.27692307692308 227.851282051282,246.55384615384614 334,241 C 440.148717948718,235.44615384615386 538.5205128205129,191.06153846153848 646,166 C 753.4794871794871,140.93846153846152 870.0666666666666,135.2 982,148 C 1093.9333333333334,160.8 1201.2128205128206,192.13846153846157 1292,201 C 1382.7871794871794,209.86153846153843 1457.082051282051,196.24615384615385 1559,189 C 1660.917948717949,181.75384615384615 1790.4589743589745,180.87692307692308 1920,180 C 1920,180 1920,1080 1920,1080 Z" fill="#08494a" opacity="0.09999999999999999"/><path d="M 0,1080 C 0,1080 0,360 0,360 C 98.83589743589746,384.9948717948718 197.67179487179493,409.9897435897436 316,406 C 434.32820512820507,402.0102564102564 572.1487179487178,369.0358974358974 662,363 C 751.8512820512822,356.9641025641026 793.7333333333333,377.8666666666667 910,362 C 1026.2666666666667,346.1333333333333 1216.9179487179485,293.4974358974359 1339,303 C 1461.0820512820515,312.5025641025641 1514.5948717948718,384.14358974358976 1600,404 C 1685.4051282051282,423.85641025641024 1802.702564102564,391.92820512820515 1920,360 C 1920,360 1920,1080 1920,1080 Z" fill="#08494a" opacity="0.19999999999999998"/><path d="M 0,1080 C 0,1080 0,540 0,540 C 99.14102564102566,576.3307692307692 198.28205128205133,612.6615384615385 311,602 C 423.7179487179487,591.3384615384615 550.0128205128204,533.6846153846154 645,509 C 739.9871794871796,484.3153846153846 803.6666666666667,492.6 920,485 C 1036.3333333333333,477.4 1205.320512820513,453.91538461538454 1326,479 C 1446.679487179487,504.08461538461546 1519.0512820512822,577.7384615384616 1610,596 C 1700.9487179487178,614.2615384615384 1810.474358974359,577.1307692307691 1920,540 C 1920,540 1920,1080 1920,1080 Z" fill="#08494a" opacity="0.3"/><path d="M 0,1080 C 0,1080 0,720 0,720 C 101.96153846153842,719.3717948717949 203.92307692307685,718.7435897435897 309,703 C 414.07692307692315,687.2564102564103 522.2692307692308,656.3974358974359 625,676 C 727.7307692307692,695.6025641025641 824.9999999999998,765.6666666666666 927,774 C 1029.0000000000002,782.3333333333334 1135.7307692307693,728.9358974358975 1244,715 C 1352.2692307692307,701.0641025641025 1462.0769230769229,726.5897435897436 1575,734 C 1687.9230769230771,741.4102564102564 1803.9615384615386,730.7051282051282 1920,720 C 1920,720 1920,1080 1920,1080 Z" fill="#08494a" opacity="0.39999999999999997"/><path d="M 0,1080 C 0,1080 0,900 0,900 C 76.90512820512822,916.3923076923077 153.81025641025644,932.7846153846154 273,930 C 392.18974358974356,927.2153846153846 553.6641025641026,905.253846153846 662,906 C 770.3358974358974,906.746153846154 825.5333333333334,930.2000000000002 919,942 C 1012.4666666666666,953.7999999999998 1144.2025641025639,953.9461538461538 1256,946 C 1367.7974358974361,938.0538461538462 1459.6564102564103,922.0153846153846 1567,913 C 1674.3435897435897,903.9846153846154 1797.1717948717949,901.9923076923077 1920,900 C 1920,900 1920,1080 1920,1080 Z" fill="#08494a" opacity="0.49999999999999994"/></svg>