<svg width="1920" height="1080" viewBox="0 0 1920 1080" xmlns="http://www.w3.org/2000/svg"><rect width="1920" height="1080" fill="#040a5d"/><path d="M 0,1080 C 0,1080 0,180 0,180 C 130.6,199.06153846153848 261.2,218.12307692307692 374,224 C 486.8,229.87692307692308 581.8,222.56923076923078 683,230 C 784.2,237.43076923076922 891.5999999999999,259.6 981,244 C 1070.4,228.4 1141.8000000000002,175.03076923076924 1242,145 C 1342.1999999999998,114.96923076923078 1471.2,108.27692307692307 1589,118 C 1706.8,127.72307692307693 1813.4,153.86153846153846 1920,180 C 1920,180 1920,1080 1920,1080 Z" fill="#0dc56f" opacity="0.09999999999999999"/><path d="M 0,1080 C 0,1080 0,360 0,360 C 92.57179487179488,369.7051282051282 185.14358974358976,379.4102564102564 281,390 C 376.85641025641024,400.5897435897436 475.9974358974358,412.0641025641026 598,408 C 720.0025641025642,403.9358974358974 864.8666666666666,384.3333333333333 964,356 C 1063.1333333333334,327.6666666666667 1116.5358974358976,290.60256410256414 1234,303 C 1351.4641025641024,315.39743589743586 1532.9897435897435,377.2564102564103 1658,395 C 1783.0102564102565,412.7435897435897 1851.5051282051281,386.37179487179486 1920,360 C 1920,360 1920,1080 1920,1080 Z" fill="#0dc56f" opacity="0.19999999999999998"/><path d="M 0,1080 C 0,1080 0,540 0,540 C 85.6307692307692,566.3333333333334 171.2615384615384,592.6666666666667 267,600 C 362.7384615384616,607.3333333333333 468.5846153846154,595.6666666666665 587,587 C 705.4153846153846,578.3333333333335 836.4000000000001,572.6666666666667 970,572 C 1103.6,571.3333333333333 1239.8153846153848,575.6666666666667 1328,554 C 1416.1846153846152,532.3333333333333 1456.3384615384616,484.6666666666667 1547,478 C 1637.6615384615384,471.3333333333333 1778.8307692307692,505.66666666666663 1920,540 C 1920,540 1920,1080 1920,1080 Z" fill="#0dc56f" opacity="0.3"/><path d="M 0,1080 C 0,1080 0,720 0,720 C 86.2051282051282,759.3564102564103 172.4102564102564,798.7128205128205 288,782 C 403.5897435897436,765.2871794871795 548.5641025641027,692.5051282051281 676,674 C 803.4358974358973,655.4948717948719 913.3333333333333,691.2666666666668 992,722 C 1070.6666666666667,752.7333333333332 1118.1025641025642,778.428205128205 1227,768 C 1335.8974358974358,757.571794871795 1506.2564102564104,711.0205128205127 1632,697 C 1757.7435897435896,682.9794871794873 1838.871794871795,701.4897435897436 1920,720 C 1920,720 1920,1080 1920,1080 Z" fill="#0dc56f" opacity="0.39999999999999997"/><path d="M 0,1080 C 0,1080 0,900 0,900 C 114.1820512820513,914.3589743589744 228.3641025641026,928.7179487179486 340,938 C 451.6358974358974,947.2820512820514 560.725641025641,951.4871794871794 664,941 C 767.274358974359,930.5128205128206 864.7333333333331,905.3333333333334 976,881 C 1087.2666666666669,856.6666666666666 1212.341025641026,833.1794871794873 1309,851 C 1405.658974358974,868.8205128205127 1473.9025641025642,927.948717948718 1571,943 C 1668.0974358974358,958.051282051282 1794.048717948718,929.025641025641 1920,900 C 1920,900 1920,1080 1920,1080 Z" fill="#0dc56f" opacity="0.49999999999999994"/></svg>